<?xml version="1.0" encoding="UTF-8" standalone="no"?>
<svg
   xmlns:dc="http://purl.org/dc/elements/1.1/"
   xmlns:cc="http://creativecommons.org/ns#"
   xmlns:rdf="http://www.w3.org/1999/02/22-rdf-syntax-ns#"
   xmlns:svg="http://www.w3.org/2000/svg"
   xmlns="http://www.w3.org/2000/svg"
   xmlns:sodipodi="http://sodipodi.sourceforge.net/DTD/sodipodi-0.dtd"
   xmlns:inkscape="http://www.inkscape.org/namespaces/inkscape"
   width="297.61707mm"
   height="266.05435mm"
   viewBox="0 0 297.61707 266.05435"
   version="1.1"
   id="svg8"
   inkscape:version="1.0.1 (3bc2e813f5, 2020-09-07)"
   sodipodi:docname="jólatré.svg">
  <defs
     id="defs2" />
  <sodipodi:namedview
     id="base"
     pagecolor="#ffffff"
     bordercolor="#666666"
     borderopacity="1.0"
     inkscape:pageopacity="0.0"
     inkscape:pageshadow="2"
     inkscape:zoom="0.49497475"
     inkscape:cx="669.71492"
     inkscape:cy="420.4766"
     inkscape:document-units="mm"
     inkscape:current-layer="layer1"
     inkscape:document-rotation="0"
     showgrid="false"
     inkscape:window-width="1624"
     inkscape:window-height="1039"
     inkscape:window-x="2657"
     inkscape:window-y="165"
     inkscape:window-maximized="0" />
  <metadata
     id="metadata5">
    <rdf:RDF>
      <cc:Work
         rdf:about="">
        <dc:format>image/svg+xml</dc:format>
        <dc:type
           rdf:resource="http://purl.org/dc/dcmitype/StillImage" />
        <dc:title></dc:title>
      </cc:Work>
    </rdf:RDF>
  </metadata>
  <g
     inkscape:label="Layer 1"
     inkscape:groupmode="layer"
     id="layer1"
     transform="translate(91.45119,-4.5242236)">
    <g
       id="g866">
      <path
         style="fill:none;stroke:#000000;stroke-width:0.264583px;stroke-linecap:butt;stroke-linejoin:miter;stroke-opacity:1"
         d="m 162.55871,47.203191 -19.71113,16.437076 15.23436,-1.870887 -22.98518,22.450639 19.77795,-4.00904 -28.59784,25.390601 25.3906,-5.07812 -31.5378,28.33058 34.8803,-4.82428 -0.0783,17.38595 h 8.62928"
         id="path833"
         sodipodi:nodetypes="ccccccccccc" />
      <path
         style="fill:none;stroke:#000000;stroke-width:0.264583px;stroke-linecap:butt;stroke-linejoin:miter;stroke-opacity:1"
         d="m 162.55871,47.203191 19.71113,16.437076 -15.23436,-1.870887 22.98517,22.450639 -19.77794,-4.00904 28.59784,25.390601 -25.39061,-5.07812 31.53781,28.33058 -33.74638,-5.39125 0.64525,17.76393 -8.32565,0.18899"
         id="path837"
         sodipodi:nodetypes="ccccccccccc" />
      <path
         sodipodi:type="star"
         style="opacity:0.463855;fill:none;stroke:#fc0000;stroke-width:0.264583"
         id="path839"
         sodipodi:sides="5"
         sodipodi:cx="84.12468"
         sodipodi:cy="23.430449"
         sodipodi:r1="10.610297"
         sodipodi:r2="5.3051491"
         sodipodi:arg1="0.7140907"
         sodipodi:arg2="1.3424092"
         inkscape:flatsided="false"
         inkscape:rounded="0"
         inkscape:randomized="0"
         d="m 92.142765,30.379456 -6.816963,-1.781618 -5.332297,4.605625 -0.412138,-7.033868 -6.027979,-3.648099 6.562248,-2.565551 1.6068,-6.860274 4.467831,5.44827 7.021036,-0.591784 -3.800977,5.932768 z"
         inkscape:transform-center-x="0.099917153"
         inkscape:transform-center-y="0.91769938"
         transform="rotate(-165.16809,124.53249,26.211502)" />
    </g>
    <g
       id="box1507"
       transform="translate(-81.497619,30.677381)">
      <path
         style="fill:none;stroke:#0000ff;stroke-width:0.1;stroke-linecap:butt;stroke-linejoin:miter"
         id="box1507-lid"
         d="m 0,0 h 5.06667 v -3.1 h 10.5333 V 0 h 5.06667 5.06667 v -3.1 h 10.5333 V 0 h 5.06667 5.06667 v -3.1 h 10.5333 V 0 h 5.06667 5.06667 v -3.1 h 10.5333 V 0 h 5.06667 5.06667 v -3.1 h 10.5333 V 0 h 5.06667 5.06667 v -3.1 h 10.5333 V 0 h 5.06667 v 2.73333 h 3.1 V 8.6 h -3.1 v 2.73333 2.73333 h 3.1 v 5.86667 h -3.1 v 2.73333 2.73333 h 3.1 v 5.86667 h -3.1 v 2.73333 h -5.06667 v 3.1 h -10.5333 v -3.1 h -5.06667 -5.06667 v 3.1 h -10.5333 v -3.1 h -5.06667 -5.06667 v 3.1 h -10.5333 v -3.1 h -5.06667 -5.06667 v 3.1 h -10.5333 v -3.1 h -5.06667 -5.06667 v 3.1 h -10.5333 v -3.1 h -5.06667 -5.06667 v 3.1 H 5.06667 v -3.1 H 0 V 31.26666 H -3.1 V 25.39999 H 0 V 22.66666 19.93333 H -3.1 V 14.06666 H 0 V 11.33333 8.6 H -3.1 V 2.73333 H 0 V 0" />
      <path
         style="fill:none;stroke:#0000ff;stroke-width:0.1;stroke-linecap:butt;stroke-linejoin:miter"
         id="box1507-longside1"
         d="M -3.1,43.3 V 40.2 H 0 5.26667 v 3.1 h 10.1333 v -3.1 h 5.26667 5.26667 v 3.1 h 10.1333 v -3.1 h 5.26667 5.26667 v 3.1 h 10.1333 v -3.1 h 5.26667 5.26667 v 3.1 h 10.1333 v -3.1 h 5.26667 5.26667 v 3.1 h 10.1333 v -3.1 h 5.26667 5.26667 v 3.1 h 10.1333 v -3.1 h 5.26667 3.1 v 3.1 3.3 h -3.1 v 6.2 h 3.1 v 3.3 3.3 h -3.1 v 6.2 h 3.1 v 3.3 3.3 h -3.1 v 6.2 h 3.1 v 3.3 3.3 h -3.1 v 6.2 h 3.1 v 3.3 3.3 h -3.1 v 6.2 h 3.1 v 3.3 3.1 h -3.1 -5.26667 v -3.1 h -10.1333 v 3.1 h -5.26667 -5.26667 v -3.1 h -10.1333 v 3.1 h -5.26667 -5.26667 v -3.1 h -10.1333 v 3.1 h -5.26667 -5.26667 v -3.1 h -10.1333 v 3.1 h -5.26667 -5.26667 v -3.1 h -10.1333 v 3.1 h -5.26667 -5.26667 v -3.1 H 5.26667 v 3.1 H 0 -3.1 V 107.3 104 H 0 V 97.8 H -3.1 V 94.5 91.2 H 0 V 85 H -3.1 V 81.7 78.4 H 0 V 72.2 H -3.1 V 68.9 65.6 H 0 V 59.4 H -3.1 V 56.1 52.8 H 0 v -6.2 h -3.1 v -3.3" />
      <path
         style="fill:none;stroke:#0000ff;stroke-width:0.1;stroke-linecap:butt;stroke-linejoin:miter"
         id="box1507-base"
         d="m 0,116.6 h 5.06667 v -3.1 h 10.5333 v 3.1 h 5.06667 5.06667 v -3.1 h 10.5333 v 3.1 h 5.06667 5.06667 v -3.1 h 10.5333 v 3.1 h 5.06667 5.06667 v -3.1 h 10.5333 v 3.1 h 5.06667 5.06667 v -3.1 h 10.5333 v 3.1 h 5.06667 5.06667 v -3.1 h 10.5333 v 3.1 h 5.06667 v 2.73333 h 3.1 V 125.2 h -3.1 v 2.73333 2.73333 h 3.1 v 5.86667 h -3.1 v 2.73333 2.73333 h 3.1 v 5.86667 h -3.1 v 2.73333 h -5.06667 v 3.1 h -10.5333 v -3.1 h -5.06667 -5.06667 v 3.1 h -10.5333 v -3.1 h -5.06667 -5.06667 v 3.1 h -10.5333 v -3.1 h -5.06667 -5.06667 v 3.1 h -10.5333 v -3.1 h -5.06667 -5.06667 v 3.1 h -10.5333 v -3.1 h -5.06667 -5.06667 v 3.1 H 5.06667 v -3.1 H 0 v -2.73333 h -3.1 v -5.86667 H 0 v -2.73333 -2.73333 h -3.1 v -5.86667 H 0 V 127.93333 125.2 h -3.1 v -5.86667 H 0 V 116.6" />
      <path
         style="fill:none;stroke:#0000ff;stroke-width:0.1;stroke-linecap:butt;stroke-linejoin:miter"
         id="box1507-longside2"
         d="m -3.1,159.9 v -3.1 H 0 5.26667 v 3.1 h 10.1333 v -3.1 h 5.26667 5.26667 v 3.1 h 10.1333 v -3.1 h 5.26667 5.26667 v 3.1 h 10.1333 v -3.1 h 5.26667 5.26667 v 3.1 h 10.1333 v -3.1 h 5.26667 5.26667 v 3.1 h 10.1333 v -3.1 h 5.26667 5.26667 v 3.1 h 10.1333 v -3.1 h 5.26667 3.1 v 3.1 3.3 h -3.1 v 6.2 h 3.1 v 3.3 3.3 h -3.1 v 6.2 h 3.1 v 3.3 3.3 h -3.1 v 6.2 h 3.1 v 3.3 3.3 h -3.1 v 6.2 h 3.1 v 3.3 3.3 h -3.1 v 6.2 h 3.1 v 3.3 3.1 h -3.1 -5.26667 v -3.1 h -10.1333 v 3.1 h -5.26667 -5.26667 v -3.1 h -10.1333 v 3.1 h -5.26667 -5.26667 v -3.1 h -10.1333 v 3.1 h -5.26667 -5.26667 v -3.1 h -10.1333 v 3.1 h -5.26667 -5.26667 v -3.1 h -10.1333 v 3.1 h -5.26667 -5.26667 v -3.1 H 5.26667 V 227 H 0 -3.1 v -3.1 -3.3 H 0 v -6.2 h -3.1 v -3.3 -3.3 H 0 v -6.2 H -3.1 V 198.3 195 H 0 v -6.2 h -3.1 v -3.3 -3.3 H 0 V 176 h -3.1 v -3.3 -3.3 H 0 v -6.2 h -3.1 v -3.3" />
      <path
         style="fill:none;stroke:#0000ff;stroke-width:0.1;stroke-linecap:butt;stroke-linejoin:miter"
         id="box1507-endface2"
         d="m 130.2,0 h 3.1 3.1 V -3.1 H 143 V 0 h 3.1 3.1 v -3.1 h 6.6 V 0 h 3.1 3.1 v -3.1 h 6.6 V 0 h 3.1 3.1 v -3.1 h 6.6 V 0 h 3.1 3.1 v -3.1 h 6.6 V 0 h 3.1 3.1 v 2.93333 h -3.1 V 8.4 h 3.1 v 2.93333 2.93333 h -3.1 v 5.46667 h 3.1 v 2.93333 2.93333 h -3.1 v 5.46667 h 3.1 v 2.93333 h -3.1 -3.1 v 3.1 h -6.6 v -3.1 h -3.1 -3.1 v 3.1 h -6.6 v -3.1 h -3.1 -3.1 v 3.1 H 162 v -3.1 h -3.1 -3.1 v 3.1 h -6.6 v -3.1 h -3.1 -3.1 v 3.1 h -6.6 v -3.1 h -3.1 -3.1 v -2.93333 h 3.1 v -5.46667 h -3.1 v -2.93333 -2.93333 h 3.1 v -5.46667 h -3.1 V 11.33333 8.4 h 3.1 V 2.93333 h -3.1 V 0" />
      <path
         style="fill:none;stroke:#0000ff;stroke-width:0.1;stroke-linecap:butt;stroke-linejoin:miter"
         id="box1507-endface1"
         d="m 130.2,116.6 h 3.1 3.1 v -3.1 h 6.6 v 3.1 h 3.1 3.1 v -3.1 h 6.6 v 3.1 h 3.1 3.1 v -3.1 h 6.6 v 3.1 h 3.1 3.1 v -3.1 h 6.6 v 3.1 h 3.1 3.1 v -3.1 h 6.6 v 3.1 h 3.1 3.1 v 2.93333 h -3.1 V 125 h 3.1 v 2.93333 2.93333 h -3.1 v 5.46667 h 3.1 v 2.93333 2.93333 h -3.1 v 5.46667 h 3.1 v 2.93333 h -3.1 -3.1 v 3.1 h -6.6 v -3.1 h -3.1 -3.1 v 3.1 h -6.6 v -3.1 h -3.1 -3.1 v 3.1 H 162 v -3.1 h -3.1 -3.1 v 3.1 h -6.6 v -3.1 h -3.1 -3.1 v 3.1 h -6.6 v -3.1 h -3.1 -3.1 v -2.93333 h 3.1 v -5.46667 h -3.1 v -2.93333 -2.93333 h 3.1 v -5.46667 h -3.1 V 127.93333 125 h 3.1 v -5.46667 h -3.1 V 116.6" />
    </g>
    <circle
       style="opacity:0.463855;fill:none;stroke:#fc0000;stroke-width:0.184457"
       id="path868"
       cx="84.450745"
       cy="165.02364"
       r="4.9077716" />
    <ellipse
       style="opacity:0.463855;fill:none;stroke:#fc0000;stroke-width:0.152978"
       id="path870"
       cx="193.39656"
       cy="123.23522"
       rx="1.9235111"
       ry="1.9235108" />
    <ellipse
       style="opacity:0.463855;fill:none;stroke:#fc0000;stroke-width:0.152978"
       id="ellipse872"
       cx="186.58119"
       cy="99.448235"
       rx="1.9235111"
       ry="1.9235108" />
    <ellipse
       style="opacity:0.463855;fill:none;stroke:#fc0000;stroke-width:0.152978"
       id="ellipse874"
       cx="178.83038"
       cy="78.20031"
       rx="1.9235111"
       ry="1.9235108" />
    <ellipse
       style="opacity:0.463855;fill:none;stroke:#fc0000;stroke-width:0.152978"
       id="ellipse876"
       cx="172.68318"
       cy="59.49144"
       rx="1.9235111"
       ry="1.9235108" />
    <ellipse
       style="opacity:0.463855;fill:none;stroke:#fc0000;stroke-width:0.152978"
       id="ellipse878"
       cx="153.57341"
       cy="59.090534"
       rx="1.9235111"
       ry="1.9235108" />
    <ellipse
       style="opacity:0.463855;fill:none;stroke:#fc0000;stroke-width:0.152978"
       id="ellipse880"
       cx="162.7942"
       cy="39.713493"
       rx="1.9235111"
       ry="1.9235108" />
    <ellipse
       style="opacity:0.463855;fill:none;stroke:#fc0000;stroke-width:0.152978"
       id="ellipse882"
       cx="146.35713"
       cy="77.7994"
       rx="1.9235111"
       ry="1.9235108" />
    <ellipse
       style="opacity:0.463855;fill:none;stroke:#fc0000;stroke-width:0.152978"
       id="ellipse884"
       cx="138.73994"
       cy="99.314598"
       rx="1.9235111"
       ry="1.9235108" />
    <ellipse
       style="opacity:0.463855;fill:none;stroke:#fc0000;stroke-width:0.152978"
       id="ellipse886"
       cx="132.32547"
       cy="123.63612"
       rx="1.9235111"
       ry="1.9235108" />
  </g>
</svg>
